<svg id="Layer_1" data-name="Layer 1" xmlns="http://www.w3.org/2000/svg" viewBox="0 0 258.28 94.36"><defs><style>.cls-1{fill:#f0f0f0;}.cls-2{fill:#7398cf;}.cls-3{fill:#f05b60;}.cls-4{fill:#ffd048;}</style></defs><title>kesradesign-logo-white</title><path class="cls-1" d="M110.23,31.68v11a4.52,4.52,0,0,1-1,3,3.38,3.38,0,0,1-2.76,1.2,3.46,3.46,0,0,1-2.77-1.2,4.47,4.47,0,0,1-1-3V17.26a4.52,4.52,0,0,1,1-3,3.44,3.44,0,0,1,2.78-1.21,3.38,3.38,0,0,1,2.75,1.21,4.51,4.51,0,0,1,1,3v9.25L120.57,15a4.37,4.37,0,0,1,3.24-1.88,3.74,3.74,0,0,1,2.64,1,3.22,3.22,0,0,1,1.1,2.48,5,5,0,0,1-1.57,3.5l-8.56,8.72,10,10.58a13.19,13.19,0,0,1,1.59,2,3.88,3.88,0,0,1,.52,2.07,3.19,3.19,0,0,1-1,2.52,3.84,3.84,0,0,1-2.65.93,4.5,4.5,0,0,1-3.29-1.76Z"/><path class="cls-1" d="M154.83,40.16H142.24L141.45,43q-1,3.89-3.36,3.89a5.28,5.28,0,0,1-2.82-.77,3,3,0,0,1-1.45-2.23,7.26,7.26,0,0,1,.3-2.37L143,17.16a6.69,6.69,0,0,1,2.16-3.06,5.58,5.58,0,0,1,6.81,0,6.62,6.62,0,0,1,2.16,3.08L163,41.53a7.51,7.51,0,0,1,.3,2.37,2.89,2.89,0,0,1-1.41,2.22,5.31,5.31,0,0,1-2.88.78,2.51,2.51,0,0,1-1.91-.93,5.43,5.43,0,0,1-1.19-2.17Zm-2.26-6.75-4-12.51-4,12.51Z"/><path class="cls-1" d="M168.42,23.27a9.57,9.57,0,0,1,1.65-5.56,10.79,10.79,0,0,1,4.42-3.66,13.72,13.72,0,0,1,5.85-1.28,21.08,21.08,0,0,1,4,.41A9.8,9.8,0,0,1,188,14.61a3.2,3.2,0,0,1,1.56,2.79,3.76,3.76,0,0,1-1,2.62,3.2,3.2,0,0,1-2.48,1.08A3.82,3.82,0,0,1,185,21l-1.38-.5a10.29,10.29,0,0,0-3.4-.63,4.82,4.82,0,0,0-2.58.71,2.22,2.22,0,0,0-1.16,2c0,1.35,1,2.29,3.05,2.82l2,.54a20.79,20.79,0,0,1,7.55,3.48,7.6,7.6,0,0,1,2.79,6.36q0,5.1-2.8,8a9.83,9.83,0,0,1-4.19,2.66,16.57,16.57,0,0,1-5.27.84A19.75,19.75,0,0,1,171,45.52a5.41,5.41,0,0,1-2-1.63,3.87,3.87,0,0,1-.76-2.36,3.36,3.36,0,0,1,1-2.35,3,3,0,0,1,2.27-1,4.79,4.79,0,0,1,1.93.35l2.6,1a10,10,0,0,0,3.69.75,4.84,4.84,0,0,0,2.88-.91,2.92,2.92,0,0,0,1.26-2.5,2.66,2.66,0,0,0-1.23-2.4,9.62,9.62,0,0,0-2-1c-.64-.21-1.74-.55-3.29-1a27.2,27.2,0,0,1-4.85-1.84,7.56,7.56,0,0,1-2.92-2.72A8.54,8.54,0,0,1,168.42,23.27Z"/><path class="cls-1" d="M206.59,33.07v9.65a4.53,4.53,0,0,1-1,3,3.38,3.38,0,0,1-2.76,1.2,3.43,3.43,0,0,1-2.76-1.2,4.47,4.47,0,0,1-1-3V18.15a4.47,4.47,0,0,1,1.21-3.34,4.57,4.57,0,0,1,3.37-1.2h7.58a12.4,12.4,0,0,1,8.13,2.56,9.34,9.34,0,0,1,2.5,3.27,9.57,9.57,0,0,1,.89,4,9.25,9.25,0,0,1-2.56,7A11,11,0,0,1,215,32.83l6.41,7a6.79,6.79,0,0,1,1.72,2.65,7,7,0,0,1,.09.85,3.74,3.74,0,0,1-.92,2.45,2.77,2.77,0,0,1-2.18,1.09,4.45,4.45,0,0,1-3.79-1.62Zm0-5.27h4.67a4.25,4.25,0,0,0,2.92-1,3.46,3.46,0,0,0,1.17-2.72,3.52,3.52,0,0,0-1.28-2.77,4.38,4.38,0,0,0-3-1.11h-4.52Z"/><path class="cls-1" d="M249.68,40.16h-12.6L236.29,43q-1,3.89-3.35,3.89a5.29,5.29,0,0,1-2.83-.77,3,3,0,0,1-1.45-2.23,7.26,7.26,0,0,1,.3-2.37l8.85-24.37A6.69,6.69,0,0,1,240,14.1a5.32,5.32,0,0,1,3.41-1.17,5.38,5.38,0,0,1,3.41,1.15,6.61,6.61,0,0,1,2.15,3.08l8.86,24.37a7.51,7.51,0,0,1,.3,2.37,2.89,2.89,0,0,1-1.41,2.22,5.31,5.31,0,0,1-2.88.78A2.53,2.53,0,0,1,251.9,46a5.43,5.43,0,0,1-1.19-2.17Zm-2.26-6.75-4-12.51-4,12.51Z"/><path class="cls-1" d="M102.69,81.91V58.32a4.21,4.21,0,0,1,4.58-4.58h7.09a17.29,17.29,0,0,1,10.49,3,13.61,13.61,0,0,1,4.52,5.82,19.25,19.25,0,0,1,1.54,7.62,18.78,18.78,0,0,1-1.85,8.43,14,14,0,0,1-5.37,5.86,15.66,15.66,0,0,1-8.24,2.11l-8.28-.09a4.39,4.39,0,0,1-3.29-1.22A4.64,4.64,0,0,1,102.69,81.91ZM110.23,80H114q4.2,0,6.3-2.21c1.74-1.83,2.61-4.37,2.61-7.64,0-3.47-1-6.08-3-7.82q-2.25-2-6.74-2h-2.9Z"/><path class="cls-1" d="M141.84,60.48v6.25h7a4,4,0,0,1,2.67.91,3,3,0,0,1,1.09,2.5,3,3,0,0,1-1.1,2.43,4,4,0,0,1-2.66.91h-7v6.36h7.78a4,4,0,0,1,2.69.89,3.08,3.08,0,0,1,1.05,2.5,3,3,0,0,1-1.07,2.44,4,4,0,0,1-2.67.91H138.88A4.18,4.18,0,0,1,134.3,82V58.32A4.58,4.58,0,0,1,135.51,55a4.51,4.51,0,0,1,3.37-1.22h10.74a4,4,0,0,1,2.69.9,3.11,3.11,0,0,1,1.05,2.5,3,3,0,0,1-1.07,2.43,4,4,0,0,1-2.67.91Z"/><path class="cls-1" d="M156.45,63.44a9.52,9.52,0,0,1,1.66-5.55,10.74,10.74,0,0,1,4.42-3.67,13.72,13.72,0,0,1,5.85-1.28,21.08,21.08,0,0,1,4,.41A10,10,0,0,1,176,54.78a3.2,3.2,0,0,1,1.56,2.79,3.76,3.76,0,0,1-1,2.62,3.17,3.17,0,0,1-2.48,1.09,3.8,3.8,0,0,1-1.13-.16l-1.38-.49a10.08,10.08,0,0,0-3.41-.64,4.9,4.9,0,0,0-2.57.71,2.21,2.21,0,0,0-1.16,2c0,1.35,1,2.29,3,2.82l2,.54a21.13,21.13,0,0,1,7.55,3.48,7.6,7.6,0,0,1,2.79,6.36,11.17,11.17,0,0,1-2.8,8,9.73,9.73,0,0,1-4.19,2.66,16.57,16.57,0,0,1-5.27.84A19.61,19.61,0,0,1,159,85.69a5.33,5.33,0,0,1-2-1.63,3.88,3.88,0,0,1-.77-2.36,3.35,3.35,0,0,1,1-2.34,3,3,0,0,1,2.27-1,4.88,4.88,0,0,1,1.92.35l2.61,1a10,10,0,0,0,3.69.75,4.77,4.77,0,0,0,2.88-.91A2.9,2.9,0,0,0,171.82,77a2.67,2.67,0,0,0-1.23-2.41,9.07,9.07,0,0,0-2-.95c-.64-.22-1.74-.55-3.29-1a26.16,26.16,0,0,1-4.85-1.84A7.49,7.49,0,0,1,157.56,68,8.54,8.54,0,0,1,156.45,63.44Z"/><path class="cls-1" d="M183.79,82.89V57.43a4.52,4.52,0,0,1,1-3,3.43,3.43,0,0,1,2.78-1.2,3.39,3.39,0,0,1,2.75,1.2,4.56,4.56,0,0,1,1,3V82.89a4.47,4.47,0,0,1-1,3,3.38,3.38,0,0,1-2.75,1.21,3.45,3.45,0,0,1-2.77-1.21A4.47,4.47,0,0,1,183.79,82.89Z"/><path class="cls-1" d="M218.25,73.88h-4.38a4,4,0,0,1-2.66-.9,3,3,0,0,1-1.09-2.45,3.05,3.05,0,0,1,1.07-2.46,4.09,4.09,0,0,1,2.68-.89h8.07a3.69,3.69,0,0,1,3.13,1.2A5.84,5.84,0,0,1,226,72a15.48,15.48,0,0,1-4.28,11,14.21,14.21,0,0,1-10.78,4.43,17.1,17.1,0,0,1-6.71-1.33,15,15,0,0,1-5.46-3.9q-4.14-4.72-4.14-12.31a17.31,17.31,0,0,1,2.17-8.5,16.23,16.23,0,0,1,14.38-8.44,17.68,17.68,0,0,1,9.25,2.37c2.09,1.28,3.19,2.65,3.31,4.13a3.71,3.71,0,0,1-1,2.58,3.06,3.06,0,0,1-2.33,1.07,5.29,5.29,0,0,1-2.65-.94l-1.93-1.23a8.15,8.15,0,0,0-4.62-1.23,7.47,7.47,0,0,0-4.7,1.5,9.11,9.11,0,0,0-2.9,3.9,13.77,13.77,0,0,0-1,5.14,14,14,0,0,0,.93,5.13,8.88,8.88,0,0,0,2.85,3.85,7.47,7.47,0,0,0,4.68,1.47,6.42,6.42,0,0,0,5.52-2.51A10.51,10.51,0,0,0,218.25,73.88Z"/><path class="cls-1" d="M236.92,66.69v16.2a4.47,4.47,0,0,1-1,3,3.38,3.38,0,0,1-2.75,1.21,3.45,3.45,0,0,1-2.77-1.21,4.47,4.47,0,0,1-1-3V57.14a3.94,3.94,0,0,1,1-2.78,3.48,3.48,0,0,1,2.66-1.11,3.84,3.84,0,0,1,3.15,1.67l14.52,18.27V57.43a4.52,4.52,0,0,1,1-3,3.45,3.45,0,0,1,2.78-1.2,3.38,3.38,0,0,1,2.74,1.2,4.48,4.48,0,0,1,1,3V82.75a4.63,4.63,0,0,1-1,3.2,3.61,3.61,0,0,1-5.51-.31Z"/><path class="cls-2" d="M7.76,60.54C16.85,53.75,19.24,58.13,37.13,31,49.86,11.69,75.3,2.78,80.51,6.18c19.83,13-31.06,34.33-37.66,60.94C38.71,83.8,14.09,89.44,7.7,86.58-6.5,80.21,2.25,64.66,7.76,60.54Z"/><path class="cls-3" d="M56.39,92.37c-21.45-3-48.92-33.64-42-57.3,7.36-25.34,13.4-24,16-17.28s6.4,34,22.75,35.59,17.63.21,27.44,4.5C90.91,62.43,111.29,100.09,56.39,92.37Z"/><path class="cls-4" d="M24.41.48a4.46,4.46,0,0,0-3.13,2.64c-2.91,7-12.23,32-12.24,65.65,0,27.63,16,29,22.69,22.13C40,82.47,33.77,24.24,35,8.41,35.76-1,28.31-.44,24.41.48Z"/></svg>